<?xml version="1.0" encoding="utf-8"?>
<!-- Generator: Adobe Illustrator 26.0.2, SVG Export Plug-In . SVG Version: 6.00 Build 0)  -->
<svg version="1.1" id="Слой_1" xmlns="http://www.w3.org/2000/svg" xmlns:xlink="http://www.w3.org/1999/xlink" x="0px" y="0px"
	 viewBox="0 0 512 512" style="enable-background:new 0 0 512 512;" xml:space="preserve">
<style type="text/css">
	.st0{fill:#C3141B;}
	.st1{font-family:'SFProDisplay-Thin';}
	.st2{font-size:18px;}
</style>
<g>
	<g>
		<path class="st0" d="M351.23,246.36c-1.84,0.2-3.68,0.54-5.53,0.59c-15.36,0.47-30.73,1.16-46.09,1.27
			c-23.31,0.16-46.62,0.02-69.93-0.25c-10.68-0.12-21.35-0.84-32.02-1.32c-0.71-0.03-1.42-0.27-2.12-0.7
			c14.16-1.9,28.43-1.63,42.92-2.45c-0.41-2.71-0.71-5.22-1.18-7.71c-2.27-11.84-4.61-23.66-6.86-35.5
			c-0.38-2.01-0.62-4.08-0.64-6.13c-0.07-8.5,0.04-17-0.08-25.5c-0.03-1.92,0.69-2.54,2.42-2.94c22.88-5.32,45.12-12.58,66.42-22.53
			c9.33-4.36,18.41-9.26,27.66-13.79c3.58-1.75,7.23-3.43,11.42-3.17c5.54,0.35,9.63,3.05,12.1,7.9c1.64,3.21,2.85,6.65,4.04,10.07
			c8.05,23.19,16.04,46.39,24.04,69.59c0.86,2.49,0.45,4.05-1.96,5.1c-9.38,4.09-18.84,8-28.27,11.97
			c-0.22,0.09-0.48,0.07-0.93,0.13c0-3.03-0.27-6,0.08-8.9c0.34-2.9,0.35-5.6-1.17-8.15c-1.42-2.38-1.15-4.93-0.82-7.48
			c0.56-4.33,1.17-8.66,1.76-12.99c0.07-0.49,0.16-0.97,0.53-1.46c0.16,2.53,0.39,5.06,0.48,7.6c0.15,4.25-0.01,8.51,0.38,12.73
			c0.24,2.55,1.18,5.05,2,7.51c0.28,0.85,1.14,1.51,1.87,2.43c1.2-4.71,1.71-8.96-0.16-13.31c-1.74-4.03-1.82-8.36-1.77-12.71
			c0.05-4.1,0.28-8.3-0.44-12.29c-1.04-5.74-5.03-8.85-10.86-8.5c-6.59,0.4-13.14,1.49-19.71,2.26c-3.57,0.42-3.11,0.97-4.99-3.09
			c1.93-1.59,3.87-3.37,5.99-4.91c4.43-3.23,5.66-8.25,2.94-12.86c-0.5-0.84-1.27-1.51-1.72-2.04c0.67-0.09,2.08,0.02,2.21-0.35
			c0.34-0.92,0.11-2.06,0.11-3.31c0.1-0.04,0.48-0.17,0.69-0.24c-0.08-0.92-0.23-1.73-0.19-2.54c0.08-1.79-1.21-2.63-2.38-3.5
			c-1.69-1.26-3.63-0.64-5.47-0.47c-0.82,0.08-1.11,1.7-0.37,2.52c0.51,0.55,1.3,0.85,2.08,1.33c-3.03,1.66-3.61,4.9-4.61,7.93
			c-0.92,2.8-2.86,4.11-6.04,4.02c0-1.15,0.04-2.32-0.01-3.48c-0.18-4.47-2.82-7.87-6.66-8.65c-3.46-0.7-7.27,1.25-8.2,4.18
			c1.55-0.38,3.12-0.76,4.74-1.15c-1.55,1.42-3.11,2.56-4.3,4c-1.27,1.54-1.39,3.45-0.8,5.5c1.08-1.5,2.02-2.81,2.97-4.12
			c0.14,0.11,0.28,0.22,0.42,0.32c-2.08,3.28-2.38,5.2-1.2,7.24c0.61-1.05,1.24-2.15,1.88-3.25c-0.85,3.11-0.85,4.57,0.39,6.56
			c0.36-0.72,0.69-1.4,1.08-2.2c0.43,1.36,0.8,2.55,1.33,4.23c0.46-0.89,0.65-1.27,0.94-1.83c0.31,0.78,0.55,1.37,0.93,2.32
			c0.55-1.53,0.98-2.72,1.41-3.92c0.1,0.04,0.21,0.08,0.31,0.12c-0.16,0.45-0.4,0.9-0.45,1.37c-0.09,0.86-0.26,1.46,0.91,2.2
			c2.26,1.44,4.56,3.16,4.08,6.59c-0.22,1.53-0.78,2.17-2.22,2.06c-3.3-0.25-6.61-0.41-9.88-0.87c-6.17-0.87-12.33-0.89-18.5-0.22
			c-0.75,0.08-1.51,0.68-2.14,1.19c-0.95,0.77-1.66,1.97-3.39,1.3c2.33-0.33,3.14-2.12,4-3.75c0.75-1.44,0.09-2.56-1.53-2.54
			c-1.47,0.02-2.93,0.43-4.4,0.69c-0.66,0.12-1.32,0.27-2,0.26c3.69-3.33,3.75-7.86-0.08-9.24c0.15,0.55,0.45,1.04,0.37,1.45
			c-0.21,1.03-0.38,2.17-0.95,2.99c-0.66,0.94-1.69,1.01-2.99,0.7c-1.76-0.41-3.74-0.53-5.49-0.13c-2.67,0.61-5.18-0.95-5.21-3.73
			c0-0.24-0.05-0.48-0.08-0.74c-1.68,0.73-2.53,2.6-1.82,4.44c0.39,1.01,1.06,2.01,1.85,2.75c1.15,1.07,0.76,1.74-0.18,2.52
			c-2.3-1.8-4.45-2.26-5.94-1.18c-0.35,0.26-0.66,0.93-0.6,1.35c0.35,2.32,2.04,3.67,5.1,4.05c0,0.68,0.26,1.54-0.04,2.08
			c-1.34,2.43-2.63,4.94-4.35,7.09c-1.87,2.35-1.78,5.23,0.98,6.37c1.68,0.7,3.73,0.61,5.61,0.66c1.45,0.04,2.9-0.26,4.36-0.36
			c0.49-0.04,1.03,0.2,1.49,0.09c2.59-0.67,3.93,0.84,5.26,2.71c1.96,2.75,2.99,5.84,4.03,9c0.92,2.81,2.32,5.49,3.78,8.07
			c1.36,2.41,3.77,3.53,6.4,4.23c0.54,0.14,1.22,0.77,1.34,1.29c0.64,2.66,1.31,5.34,1.61,8.05c0.36,3.27-0.74,6.29-2.4,9.09
			c-0.98,1.65-2,3.28-3.2,5.24c2.58,0.51,4.81,0.56,7.04,0.02c0.35-0.09,0.73-0.53,0.89-0.89c1.07-2.59,2.16-5.14,1.68-8.12
			c-0.38-2.3-0.67-4.62,0.56-6.94c0.47-0.88-0.27-2.37-0.4-3.59c-0.19-1.77-0.34-3.54-0.53-5.52c-0.28,0.7-0.48,1.17-0.7,1.72
			c-1.58-0.46-1.67-1.67-1.69-2.84c-0.08-5.88,3.81-10.83,9.51-12.41c3.78-1.05,7.56-0.52,11.35-0.34
			c5.04,0.23,10.08,0.35,15.11,0.51c0.19,0.01,0.44,0.04,0.55-0.06c1.77-1.65,3.83-1.41,6.04-1.28c1.68,0.1,2.95-1.08,3.31-2.82
			c-1.23,0.6-2.4,1.51-3.68,1.7c-1.19,0.18-2.5-0.39-3.77-0.63c0.16-0.66,0.14-0.84,0.22-0.89c2.33-1.66,4.67-3.31,6.98-5
			c2.28-1.67,5.01-1.15,7.44,0.29c0.26,0.16,0.63,0.35,0.69,0.6c0.84,2.99,3.76,4.37,5.22,6.87c0.41,0.7,0.9,1.36,1.22,2.1
			c0.9,2.12-0.92,4.45-3.2,4.14c-0.74-0.1-1.49-0.39-2.21-0.31c-0.99,0.11-2.71,0.35-2.78,0.76c-0.22,1.3-0.23,2.96,0.42,4.03
			c3.19,5.23,6,10.52,5.97,16.89c-0.01,1.35-0.3,2.03-1.66,2.38c-2.63,0.66-5.22,1.49-8.38,2.41c1.65-4.3,3.05-8.09,4.55-11.83
			c1.38-3.44,0.83-6.85-1.77-9c-0.25,0.93-0.53,1.73-0.67,2.55c-0.98,5.64-4.01,11.06-10.21,11.84c-1.62,0.2-2.16,1.08-2.45,2.71
			c-0.62,3.5-1.15,6.91,0.8,10.16c-3.32,1.28-5.42-0.28-4.82-3.5c0.36-1.94,0.21-3.99,0.11-5.98c-0.11-2.22-2.04-3.83-4.24-3.65
			c-3.87,0.32-7.69,0.63-11.5-0.65c-2.05-0.69-4.79,3.07-3.95,5.47c0.8,2.29,1.91,4.47,2.9,6.68c0.25,0.55,0.59,1.06,0.91,1.61
			c-3.25,1.01-4.87,0.3-5.81-2.58c-0.77-2.37-1.39-4.8-2.12-7.18c-0.33-1.1-0.2-1.85,0.91-2.49c1.79-1.03,2.98-2.59,3.57-5.06
			c-1.27,1.4-2.17,2.61-3.29,3.58c-3.08,2.68-2.97,2.69-4.16,6.72c-0.63,2.14-0.51,3.98,0.36,5.97c0.58,1.32,1.4,1.95,2.83,1.98
			c5.99,0.13,11.99,0.25,17.98,0.47c12.36,0.44,24.72,0.94,37.08,1.44c1.1,0.04,2.19,0.3,3.29,0.46
			C351.19,245.96,351.21,246.16,351.23,246.36z M335.13,149.26c3.31,0.06,6.02-2.52,6.09-5.8c0.08-3.38-2.57-6.12-5.94-6.16
			c-3.24-0.04-5.97,2.65-6.01,5.92C329.23,146.49,331.85,149.2,335.13,149.26z"/>
		<path d="M277.17,342.52c-4.49,0-8.9,0-13.69,0c0-5.02,0-10.05,0-15.07c0-4.98,0-9.97,0-15.08c-4.47,0-8.73,0-13.21,0
			c0,10.07,0,20.03,0,30.12c-4.72,0-9.24,0-13.89,0c0-24.4,0-48.73,0-73.18c4.61,0,9.13,0,13.89,0c0,0.75,0,1.42,0,2.09
			c0,8.37,0.06,16.74-0.04,25.11c-0.02,1.86,0.58,2.33,2.34,2.25c2.93-0.14,5.87-0.12,8.81-0.01c1.62,0.06,2.15-0.38,2.14-2.08
			c-0.08-8.43-0.03-16.87-0.03-25.3c0-0.62,0-1.24,0-2.03c4.58,0,9.04,0,13.68,0C277.17,293.68,277.17,318.05,277.17,342.52z"/>
		<path d="M127.51,305.79c0.22-6.24,0.09-12.52,0.75-18.71c0.85-7.97,4.64-14.29,12.53-17.21c8.14-3.01,15.91-2.13,22.76,3.46
			c4.54,3.7,6.18,8.96,6.91,14.53c0.32,2.47,0.4,4.99,0.39,7.48c-0.05,9.25-0.11,18.49-0.33,27.74c-0.05,1.96-0.6,3.95-1.15,5.86
			c-3.19,11.22-13.72,15.48-22.84,14.26c-11.5-1.54-18.01-9-18.64-21.29c-0.28-5.36-0.05-10.75-0.05-16.12
			C127.73,305.8,127.62,305.8,127.51,305.79z M156.87,306c-0.1,0-0.2-0.01-0.3-0.01c0-4.06,0.17-8.14-0.06-12.18
			c-0.16-2.71-0.63-5.47-1.45-8.04c-0.86-2.68-3.04-3.95-5.96-3.91c-2.88,0.04-4.87,1.46-5.69,4.04c-0.77,2.4-1.29,4.99-1.34,7.5
			c-0.16,8.37-0.2,16.75,0.01,25.12c0.07,2.68,0.67,5.49,1.7,7.96c1.45,3.48,6.05,4.47,9.1,2.32c1.84-1.3,2.86-3.26,3.03-5.41
			C156.35,317.6,156.57,311.8,156.87,306z"/>
		<path class="st0" d="M387.2,305.66c0.31-6.48,0.23-13.01,1.03-19.43c0.98-7.93,5.15-13.93,13.02-16.57
			c7.93-2.67,15.45-1.68,22.05,3.7c4.21,3.42,5.92,8.27,6.72,13.43c0.39,2.52,0.51,5.1,0.53,7.65c0.06,7.87,0.03,15.74,0.01,23.61
			c-0.01,4.14-0.51,8.19-1.86,12.16c-3.41,9.99-13.64,14.09-22.09,12.99c-11.45-1.5-17.97-8.54-18.8-20.49
			c-0.39-5.65-0.07-11.36-0.07-17.04C387.56,305.67,387.38,305.67,387.2,305.66z M416.32,305.74c0.01,0,0.02,0,0.03,0
			c0-4.12,0.13-8.25-0.05-12.37c-0.1-2.34-0.43-4.75-1.13-6.98c-1.03-3.28-3.08-4.57-6.27-4.56c-2.98,0.01-4.96,1.44-6.07,4.62
			c-0.48,1.4-0.89,2.91-0.91,4.38c-0.12,9.62-0.2,19.24-0.1,28.85c0.02,2.13,0.65,4.33,1.39,6.35c0.91,2.5,2.95,3.82,5.67,3.86
			c2.78,0.05,5-1.14,5.89-3.77c0.81-2.39,1.35-4.95,1.48-7.46C416.49,314.37,416.32,310.05,416.32,305.74z"/>
		<path d="M123.36,294.37c-4.31,0-8.31-0.02-12.3,0.01c-1.06,0.01-1.15-0.56-1.26-1.4c-0.27-2.1-0.45-4.24-1.05-6.25
			c-1-3.35-3.16-4.86-6.29-4.84c-3.05,0.02-5.11,1.49-6.04,4.86c-0.61,2.2-0.94,4.54-0.97,6.82c-0.11,8.31-0.15,16.63,0.02,24.94
			c0.05,2.51,0.62,5.08,1.4,7.48c0.85,2.62,3.02,3.9,5.82,3.87c2.8-0.03,5.08-1.33,5.73-3.98c0.83-3.41,1.03-6.99,1.37-10.51
			c0.03-0.3-0.84-0.95-1.33-0.99c-1.49-0.14-3,0.03-4.49-0.12c-0.45-0.05-1.18-0.74-1.19-1.14c-0.09-3.99-0.05-7.99-0.05-12.08
			c0.52-0.09,0.93-0.22,1.34-0.22c5.94-0.01,11.88,0.01,17.81-0.03c1.13-0.01,1.72,0.22,1.69,1.54c-0.12,6.56-0.08,13.12-0.28,19.68
			c-0.07,2.16-0.52,4.34-1.05,6.45c-3.17,12.83-15.07,16.41-24.33,14.47c-9.55-2-15.63-8.82-16.13-19.23
			c-0.52-10.85-0.33-21.74-0.3-32.61c0.01-2.41,0.46-4.86,1.02-7.22c1.92-8.12,6.96-13.35,15.17-15.03
			c8.24-1.68,15.66,0.11,21.03,6.98C122.85,281.13,123.43,287.58,123.36,294.37z"/>
		<path class="st0" d="M341.03,305.91c0.2-6.18,0.09-12.39,0.65-18.53c0.95-10.45,7.97-17.81,17.45-18.88
			c12.77-1.45,22.06,5.89,23.59,18.68c0.22,1.86,0.26,3.74,0.42,5.61c0.09,1.1-0.28,1.58-1.46,1.57c-3.5-0.05-7-0.06-10.5,0
			c-1.16,0.02-1.41-0.48-1.57-1.53c-0.36-2.39-0.68-4.84-1.48-7.1c-0.94-2.65-3.07-3.94-5.99-3.89c-2.79,0.04-4.77,1.38-5.57,3.91
			c-0.77,2.47-1.36,5.1-1.42,7.67c-0.18,8.37-0.18,16.75,0,25.12c0.06,2.57,0.69,5.2,1.51,7.64c0.85,2.53,3,3.73,5.72,3.74
			c2.73,0.01,4.67-1.28,5.79-3.71c1.59-3.46,1.55-7.17,1.44-10.86c-0.01-0.37-0.85-0.98-1.35-1.02c-1.49-0.14-3,0.03-4.49-0.12
			c-0.44-0.04-1.15-0.75-1.16-1.16c-0.09-3.62-0.04-7.25-0.07-10.87c-0.01-0.98,0.42-1.32,1.35-1.32c6,0.01,12-0.02,18,0.05
			c0.44,0.01,1.27,0.71,1.26,1.07c-0.24,8.72,1,17.52-1.11,26.15c-1.92,7.89-6.76,12.99-14.81,14.65
			c-8.44,1.75-15.82-0.29-21.4-7.05c-3.39-4.11-4.34-9.24-4.53-14.42c-0.19-5.12-0.04-10.25-0.04-15.37
			C341.19,305.91,341.11,305.91,341.03,305.91z"/>
		<path d="M231.86,292.28c-4.57,0-8.86,0-13.23,0c-0.29-1.67-0.46-3.34-0.89-4.95c-1.07-3.92-3.65-5.83-7.16-5.39
			c-0.73,0.09-1.49,0.31-2.12,0.67c-3.07,1.75-3.72,4.72-3.65,7.89c0.06,2.88,1.19,5.33,4.05,6.38c2.27,0.83,4.66,1.39,7.03,1.86
			c10.55,2.11,16.92,9.47,16.89,20.23c-0.01,3.88-0.58,7.86-1.6,11.61c-1.55,5.67-5.57,9.39-11.11,11.3
			c-6.18,2.13-12.41,2.19-18.5-0.34c-7.67-3.19-10.77-9.61-11.82-17.36c-0.2-1.46-0.25-2.93-0.37-4.53c4.63,0,8.98,0,13.43,0
			c0.22,1.36,0.35,2.73,0.67,4.04c1.05,4.21,3.96,6.36,8.17,6.14c4.19-0.22,6.55-2.52,7.18-6.97c0.74-5.29-0.99-8.27-6-9.91
			c-2.9-0.95-5.92-1.53-8.83-2.46c-8.26-2.63-12.93-8.54-13.09-17.17c-0.07-3.88,0.29-7.91,1.29-11.65
			c2.54-9.57,11.52-13.66,19.98-13.39c11.08,0.34,18.18,7.3,19.39,19.12C231.75,288.98,231.77,290.58,231.86,292.28z"/>
		<path class="st0" d="M226.08,167.51c0,8.68,0,17.15,0,25.98c-4.57-3.9-9.35-2.3-14.05-1.18c-7.47,1.79-14.84,4.04-22.38,5.43
			c-7.36,1.35-14.89,1.71-22.3,2.82c-2.9,0.44-5.8,1.48-8.45,2.76c-1.52,0.73-2.46,2.57-3.81,3.75c-1.03,0.9-2.2,2.04-3.43,2.23
			c-9.52,1.45-18.24-5.58-17.86-14.92c0.22-5.27,3.72-10.04,9.2-11.45c4.4-1.13,8.95-1.71,13.44-2.47
			c22.77-3.88,45.59-7.53,68.11-12.78C224.98,167.59,225.42,167.59,226.08,167.51z M216.45,181.62c-0.02-1.98-1.64-3.59-3.59-3.56
			c-2.08,0.03-3.67,1.7-3.6,3.77c0.07,1.98,1.68,3.47,3.71,3.41C215.02,185.19,216.47,183.68,216.45,181.62z M157.09,192.81
			c0-1.97-1.58-3.57-3.55-3.59c-1.97-0.02-3.56,1.57-3.57,3.55c-0.01,1.95,1.62,3.61,3.54,3.62
			C155.44,196.4,157.09,194.75,157.09,192.81z M186.76,187.54c0.01-2.01-1.54-3.58-3.54-3.58c-1.98,0-3.58,1.58-3.61,3.55
			c-0.02,1.93,1.63,3.6,3.57,3.61C185.14,191.13,186.75,189.52,186.76,187.54z"/>
		<path d="M280.35,282.74c0-4.6,0-8.94,0-13.42c12.73,0,25.37,0,38.14,0c0,4.41,0,8.75,0,13.38c-3.98,0-7.92,0-12.05,0
			c0,20.07,0,39.85,0,59.78c-4.7,0-9.21,0-14,0c0-0.79,0-1.52,0-2.24c0-18.12,0.01-36.24-0.01-54.36c0-3.63,0.47-3.09-3.22-3.13
			C286.3,282.72,283.38,282.74,280.35,282.74z"/>
		<path d="M176.65,269.25c4.24,0,8.28,0,12.6,0c0,2.47-0.12,4.88,0.03,7.28c0.21,3.49-0.33,6.8-1.75,10
			c-0.66,1.48-1.1,3.05-1.65,4.57c-1.43,3.96-1.47,3.98-6.02,3.27c0.68-4.13,1.35-8.26,2.07-12.65c-1.87,0-3.52,0-5.28,0
			C176.65,277.46,176.65,273.45,176.65,269.25z"/>
		<path class="st0" d="M328.35,242.52c-3.98,1.01-5.14,0.02-5.47-3.97c-0.14-1.73-0.32-3.47-0.61-5.18c-0.26-1.51-0.3-2.71,1.7-2.87
			c0.58-0.05,1.14-0.43,2.13-0.83C325.34,234.32,325.83,238.55,328.35,242.52z"/>
		<path class="st0" d="M313.36,178.14c-1.64,0-3.08,0-4.69,0c0.12-1.24-0.96-2.86,1.28-3.5
			C311.35,174.24,312.16,174.97,313.36,178.14z"/>
	</g>
	<text transform="matrix(1 0 0 1 156.3103 381.4412)" class="st1 st2">СОЗДАН ДЛЯ ГУРМАНОВ</text>
</g>
</svg>
